<?xml version="1.0" encoding="utf-8"?>
<!-- Generator: Adobe Illustrator 25.0.0, SVG Export Plug-In . SVG Version: 6.00 Build 0)  -->
<svg version="1.1" id="afa995e8-53ec-4634-9892-86c4bba6520e"
	 xmlns="http://www.w3.org/2000/svg" xmlns:xlink="http://www.w3.org/1999/xlink" x="0px" y="0px" viewBox="0 0 127.3 17.5"
	 style="enable-background:new 0 0 127.3 17.5;" xml:space="preserve">
<style type="text/css">
	.st0{fill:url(#SVGID_1_);}
	.st1{fill:url(#SVGID_2_);}
	.st2{fill:url(#SVGID_3_);}
	.st3{fill:url(#SVGID_4_);}
	.st4{fill:url(#SVGID_5_);}
	.st5{fill:url(#SVGID_6_);}
	.st6{fill:url(#SVGID_7_);}
	.st7{fill:url(#SVGID_8_);}
	.st8{fill:url(#SVGID_9_);}
</style>
<linearGradient id="SVGID_1_" gradientUnits="userSpaceOnUse" x1="11.48" y1="33.18" x2="11.48" y2="50.68" gradientTransform="matrix(1 0 0 -1 -6.14 50.68)">
	<stop  offset="0" style="stop-color:#DBDBDB"/>
	<stop  offset="1" style="stop-color:#FFFFFF"/>
</linearGradient>
<path class="st0" d="M4.6,10.1v7.4H0V0h4.6v6.3H6V0h4.7v17.5H6v-7.4H4.6z"/>
<linearGradient id="SVGID_2_" gradientUnits="userSpaceOnUse" x1="26.25" y1="33.18" x2="26.25" y2="50.68" gradientTransform="matrix(1 0 0 -1 -6.14 50.68)">
	<stop  offset="0" style="stop-color:#DBDBDB"/>
	<stop  offset="1" style="stop-color:#FFFFFF"/>
</linearGradient>
<path class="st1" d="M19.3,14.4L19,17.5h-4.8L16.6,0h6.7L26,17.5h-4.8L21,14.4H19.3z"/>
<linearGradient id="SVGID_3_" gradientUnits="userSpaceOnUse" x1="40.8479" y1="33.18" x2="40.8479" y2="50.6908" gradientTransform="matrix(1 0 0 -1 -6.14 50.68)">
	<stop  offset="0" style="stop-color:#DBDBDB"/>
	<stop  offset="1" style="stop-color:#FFFFFF"/>
</linearGradient>
<path class="st2" d="M32.8,0c1.5,0,3,0,4.5,0.2c0.5,0.1,1,0.3,1.3,0.7C39,1.2,39.2,1.5,39.4,2c0.2,0.4,0.3,0.9,0.4,1.4
	c0.1,0.5,0.1,1,0.1,1.4c0,0.5,0,1,0,1.4c0,0.4-0.1,0.8-0.3,1.1c-0.2,0.3-0.4,0.6-0.8,0.7c-0.4,0.2-0.9,0.3-1.4,0.3
	c0.5,0.1,1,0.3,1.5,0.6c0.5,0.3,0.8,0.8,0.9,1.3c0.1,0.9,0.1,1.8,0.1,2.6v4.6h-4.3v-3h-1.4v3h-4.6V0H32.8z"/>
<linearGradient id="SVGID_4_" gradientUnits="userSpaceOnUse" x1="55.2998" y1="33.18" x2="55.2998" y2="50.691" gradientTransform="matrix(1 0 0 -1 -6.14 50.68)">
	<stop  offset="0" style="stop-color:#DBDBDB"/>
	<stop  offset="1" style="stop-color:#FFFFFF"/>
</linearGradient>
<path class="st3" d="M47.2,0c1.5,0,3,0,4.5,0.2c0.5,0.1,1,0.3,1.3,0.7c0.3,0.3,0.6,0.7,0.8,1.1c0.2,0.4,0.3,0.9,0.4,1.4
	c0.1,0.5,0.1,1,0.1,1.4c0,0.5,0,1-0.1,1.4c0,0.4-0.1,0.8-0.3,1.1c-0.2,0.3-0.4,0.6-0.8,0.7c-0.4,0.2-0.9,0.3-1.4,0.3
	c0.5,0.1,1,0.3,1.5,0.6c0.5,0.3,0.8,0.8,0.9,1.3c0.1,0.9,0.1,1.8,0.1,2.6v4.6H50v-3h-1.4v3H44V0H47.2z"/>
<linearGradient id="SVGID_5_" gradientUnits="userSpaceOnUse" x1="69.055" y1="33.18" x2="69.055" y2="50.68" gradientTransform="matrix(1 0 0 -1 -6.14 50.68)">
	<stop  offset="0" style="stop-color:#DBDBDB"/>
	<stop  offset="1" style="stop-color:#FFFFFF"/>
</linearGradient>
<path class="st4" d="M61.7,0c0.3,1.7,0.6,3.2,0.8,4.3c0.2,1.1,0.3,2,0.3,2.6c0.1-0.9,0.3-2,0.5-3.1s0.5-2.4,0.8-3.8h4.3L65,11.2v6.3
	h-4.3v-6.3L57.4,0H61.7z"/>
<linearGradient id="SVGID_6_" gradientUnits="userSpaceOnUse" x1="86.765" y1="33.1849" x2="86.765" y2="50.68" gradientTransform="matrix(1 0 0 -1 -6.14 50.68)">
	<stop  offset="0" style="stop-color:#DBDBDB"/>
	<stop  offset="1" style="stop-color:#FFFFFF"/>
</linearGradient>
<path class="st5" d="M79.2,0h4.7v11.7c0,0.9,0,1.6,0,2.2s0,1,0,1.2c0,0.5-0.2,1-0.5,1.4c-0.3,0.4-0.7,0.7-1.2,0.8
	c-0.8,0.2-1.5,0.2-2.3,0.2h-2.4v-3h0.4H78c0.3,0,0.6-0.1,0.8-0.2c0.1-0.1,0.2-0.2,0.2-0.3l0.1-0.3c0-0.1,0-0.3,0-0.5s0-0.5,0-0.8
	L79.2,0z"/>
<linearGradient id="SVGID_7_" gradientUnits="userSpaceOnUse" x1="106.3475" y1="33.18" x2="106.3475" y2="50.6661" gradientTransform="matrix(1 0 0 -1 -6.14 50.68)">
	<stop  offset="0" style="stop-color:#DBDBDB"/>
	<stop  offset="1" style="stop-color:#FFFFFF"/>
</linearGradient>
<path class="st6" d="M104.7,1.3c0.4,0.5,0.7,1,0.8,1.6c0.1,0.4,0.1,0.8,0.1,1.3c0,0.6,0,1.2,0,2.1v6.1c0.1,1.1,0,2.1-0.2,3.1
	c-0.1,0.5-0.4,1-0.8,1.3c-0.4,0.3-0.9,0.5-1.4,0.6c-0.3,0.1-0.7,0.1-1,0.1c-0.4,0-0.9,0-1.5,0h-5.8V0h3.5c1.5-0.1,3,0,4.6,0.3
	c0.3,0.1,0.7,0.2,1,0.4C104.1,0.8,104.4,1,104.7,1.3z"/>
<linearGradient id="SVGID_8_" gradientUnits="userSpaceOnUse" x1="119.14" y1="33.18" x2="119.14" y2="50.68" gradientTransform="matrix(1 0 0 -1 -6.14 50.68)">
	<stop  offset="0" style="stop-color:#DBDBDB"/>
	<stop  offset="1" style="stop-color:#FFFFFF"/>
</linearGradient>
<path class="st7" d="M117,14v3.5h-8V0h7.8v3.5h-3.1v3.3h2.9v3.3h-2.9V14H117z"/>
<linearGradient id="SVGID_9_" gradientUnits="userSpaceOnUse" x1="129.47" y1="33.18" x2="129.47" y2="50.68" gradientTransform="matrix(1 0 0 -1 -6.14 50.68)">
	<stop  offset="0" style="stop-color:#DBDBDB"/>
	<stop  offset="1" style="stop-color:#FFFFFF"/>
</linearGradient>
<path class="st8" d="M127.3,14v3.5h-8V0h7.8v3.5h-3.2v3.3h3v3.3h-3V14H127.3z"/>
</svg>
