<svg id="fb8e5f68-34fe-4153-9422-52a151f1a073" data-name="bea1ff6a-cf3a-456c-b1c2-3de6eed6d1e1" xmlns="http://www.w3.org/2000/svg" viewBox="0 0 126.98 17.5"><g style="isolation:isolate"><path d="M5,10.15V17.5H.39V0H5V6.26h1.4V0h4.65V17.5H6.41V10.15Z" transform="translate(-0.39 0)"/><path d="M19.67,14.35l-.28,3.15H14.56L16.94,0h6.72l2.7,17.5h-4.8l-.24-3.15Z" transform="translate(-0.39 0)"/><path d="M33.11,0a30.44,30.44,0,0,1,4.48.21,3.06,3.06,0,0,1,1.35.67A3,3,0,0,1,39.72,2a5,5,0,0,1,.39,1.35,10,10,0,0,1,.11,1.45c0,.54,0,1-.07,1.44a3.29,3.29,0,0,1-.32,1.1,1.66,1.66,0,0,1-.75.73,3.74,3.74,0,0,1-1.42.34A6.28,6.28,0,0,1,39.18,9a1.9,1.9,0,0,1,.93,1.31,17.51,17.51,0,0,1,.11,2.63V17.5H35.88v-3H34.47v3H29.82V0Z" transform="translate(-0.39 0)"/><path d="M47.53,0A30.44,30.44,0,0,1,52,.21a3.06,3.06,0,0,1,1.35.67A3,3,0,0,1,54.14,2a5,5,0,0,1,.39,1.35,10,10,0,0,1,.11,1.45c0,.54,0,1-.07,1.44a3.29,3.29,0,0,1-.32,1.1A1.66,1.66,0,0,1,53.5,8a3.74,3.74,0,0,1-1.42.34A6.28,6.28,0,0,1,53.6,9a1.9,1.9,0,0,1,.93,1.31,17.51,17.51,0,0,1,.11,2.63V17.5H50.3v-3H48.89v3H44.24V0Z" transform="translate(-0.39 0)"/><path d="M61.91,0q.53,2.6.81,4.29c.19,1.13.3,2,.35,2.6.12-.93.28-2,.51-3.11s.48-2.4.78-3.78h4.31L65.24,11.17V17.5H60.93V11.17L57.64,0Z" transform="translate(-0.39 0)"/><path d="M79.34,0H84V11.69c0,.89,0,1.61,0,2.17s0,1,0,1.23a2.79,2.79,0,0,1-.49,1.36,2.55,2.55,0,0,1-1.23.84,9.4,9.4,0,0,1-2.31.21H77.56v-3l.38,0h.21a1.3,1.3,0,0,0,.81-.24.79.79,0,0,0,.23-.28,3.32,3.32,0,0,1,.12-.32c0-.12,0-.29,0-.51s0-.49,0-.82Z" transform="translate(-0.39 0)"/><path d="M104.75,1.26a3.35,3.35,0,0,1,.77,1.58c0,.28.09.7.13,1.25s0,1.25,0,2.07v6.13a12,12,0,0,1-.25,3.14,2.13,2.13,0,0,1-.8,1.3,4.27,4.27,0,0,1-1.4.63,9.35,9.35,0,0,1-1,.11q-.63,0-1.47,0H94.92V0h3.46a20.79,20.79,0,0,1,4.55.32,4.17,4.17,0,0,1,1,.38A3.06,3.06,0,0,1,104.75,1.26Z" transform="translate(-0.39 0)"/><path d="M117.07,14v3.5h-8V0h7.77V3.5h-3.15V6.83h2.94v3.32h-2.94V14Z" transform="translate(-0.39 0)"/><path d="M127.36,14v3.5h-8V0h7.77V3.5h-3.15V6.83h2.94v3.32h-2.94V14Z" transform="translate(-0.39 0)"/></g></svg>